# xmcd
#
# Track frame offsets: 
#        150
#        21005
#        48160
#        68447
#        103957
#        123470
#        153645
#        195370
#        227715
#
# Disc length: 3376 seconds
#
# Revision: 0
# Processed by: cddbd v1.5.2PL0 Copyright (c) Steve Scherf et al.
# Submitted via: ExactAudioCopy v0.95b4
#
DISCID=6d0d2e09
DTITLE=Eric Clapton and Friends - One More Car, One More Rider (Live on 
DTITLE=Tour 2001) - Disc 2
DYEAR=2001
DGENRE=Blues
TTITLE0=I Want a Little Girl
TTITLE1=Badge
TTITLE2=Hoochie Coochie Man
TTITLE3=Have You Ever Loved a Woman?
TTITLE4=Cocaine
TTITLE5=Wonderful Tonight
TTITLE6=Layla
TTITLE7=Sunshine of Your Love
TTITLE8=Over the Rainbow
EXTD=
EXTT0=
EXTT1=
EXTT2=
EXTT3=
EXTT4=
EXTT5=
EXTT6=
EXTT7=
EXTT8=
PLAYORDER=
